<mxfile host="app.diagrams.net" agent="Mozilla/5.0 (Windows NT 10.0; Win64; x64; rv:130.0) Gecko/20100101 Firefox/130.0" version="24.7.17">
  <diagram name="Page-1" id="03018318-947c-dd8e-b7a3-06fadd420f32">
    <mxGraphModel dx="1434" dy="754" grid="1" gridSize="10" guides="1" tooltips="1" connect="1" arrows="1" fold="1" page="1" pageScale="1" pageWidth="1100" pageHeight="850" background="none" math="0" shadow="0">
      <root>
        <mxCell id="0" />
        <mxCell id="1" parent="0" />
        <mxCell id="677b7b8949515195-1" value="" style="whiteSpace=wrap;html=1;rounded=0;shadow=0;labelBackgroundColor=none;strokeColor=#000000;strokeWidth=1;fillColor=#e0dbcd;fontFamily=Verdana;fontSize=12;fontColor=#000000;align=center;comic=1;glass=0;sketch=1;curveFitting=1;jiggle=2;" parent="1" vertex="1">
          <mxGeometry x="20" y="20" width="1060" height="810" as="geometry" />
        </mxCell>
        <mxCell id="677b7b8949515195-2" value="" style="whiteSpace=wrap;html=1;rounded=0;shadow=0;labelBackgroundColor=none;strokeWidth=1;fontFamily=Cabin Sketch;fontSize=24;align=center;comic=1;fillColor=#e0dbcd;sketch=1;curveFitting=1;jiggle=2;fontSource=https%3A%2F%2Ffonts.googleapis.com%2Fcss%3Ffamily%3DCabin%2BSketch;" parent="1" vertex="1">
          <mxGeometry x="50" y="220" width="310" height="580" as="geometry" />
        </mxCell>
        <mxCell id="zoR_4AAuzc3p54MubUYO-24" value="" style="line;strokeWidth=2;html=1;sketch=1;hachureGap=4;jiggle=2;curveFitting=1;fontFamily=Architects Daughter;fontSource=https%3A%2F%2Ffonts.googleapis.com%2Fcss%3Ffamily%3DArchitects%2BDaughter;" vertex="1" parent="1">
          <mxGeometry x="70" y="103" width="240" height="10" as="geometry" />
        </mxCell>
        <mxCell id="zoR_4AAuzc3p54MubUYO-25" value="&lt;div&gt;Score&lt;/div&gt;&lt;div&gt;&lt;br&gt;&lt;/div&gt;&lt;div&gt;0123456789&lt;br&gt;&lt;/div&gt;" style="whiteSpace=wrap;html=1;rounded=0;shadow=0;labelBackgroundColor=none;strokeWidth=1;fontFamily=Cabin Sketch;fontSize=24;align=center;comic=1;fillColor=#e0dbcd;sketch=1;curveFitting=1;jiggle=2;fontSource=https%3A%2F%2Ffonts.googleapis.com%2Fcss%3Ffamily%3DCabin%2BSketch;" vertex="1" parent="1">
          <mxGeometry x="50" y="50" width="310" height="140" as="geometry" />
        </mxCell>
        <mxCell id="zoR_4AAuzc3p54MubUYO-26" value="High Scores" style="text;html=1;align=center;verticalAlign=middle;whiteSpace=wrap;rounded=0;fontFamily=Cabin Sketch;fontSource=https%3A%2F%2Ffonts.googleapis.com%2Fcss%3Ffamily%3DCabin%2BSketch;fontSize=24;" vertex="1" parent="1">
          <mxGeometry x="112.5" y="240" width="155" height="30" as="geometry" />
        </mxCell>
        <mxCell id="zoR_4AAuzc3p54MubUYO-27" value="" style="line;strokeWidth=2;html=1;sketch=1;hachureGap=4;jiggle=2;curveFitting=1;fontFamily=Architects Daughter;fontSource=https%3A%2F%2Ffonts.googleapis.com%2Fcss%3Ffamily%3DArchitects%2BDaughter;" vertex="1" parent="1">
          <mxGeometry x="70" y="280" width="240" height="10" as="geometry" />
        </mxCell>
        <mxCell id="zoR_4AAuzc3p54MubUYO-28" value="&lt;div&gt;1. AAA 987&lt;/div&gt;&lt;div&gt;2. BBB 654&lt;/div&gt;&lt;div&gt;3. CCC 321&lt;br&gt;&lt;/div&gt;" style="text;html=1;align=left;verticalAlign=middle;whiteSpace=wrap;rounded=0;fontFamily=Cabin Sketch;fontSource=https%3A%2F%2Ffonts.googleapis.com%2Fcss%3Ffamily%3DCabin%2BSketch;fontSize=24;labelPosition=center;verticalLabelPosition=middle;" vertex="1" parent="1">
          <mxGeometry x="70" y="320" width="310" height="30" as="geometry" />
        </mxCell>
        <mxCell id="zoR_4AAuzc3p54MubUYO-29" value="" style="rounded=0;whiteSpace=wrap;html=1;sketch=1;hachureGap=4;jiggle=2;curveFitting=1;fontFamily=Architects Daughter;fontSource=https%3A%2F%2Ffonts.googleapis.com%2Fcss%3Ffamily%3DArchitects%2BDaughter;fillColor=#e0dbcd;" vertex="1" parent="1">
          <mxGeometry x="400" y="40" width="640" height="760" as="geometry" />
        </mxCell>
        <mxCell id="zoR_4AAuzc3p54MubUYO-41" value="" style="rounded=0;whiteSpace=wrap;html=1;sketch=1;hachureGap=4;jiggle=2;curveFitting=1;fontFamily=Architects Daughter;fontSource=https%3A%2F%2Ffonts.googleapis.com%2Fcss%3Ffamily%3DArchitects%2BDaughter;fillColor=#E0DBCD;" vertex="1" parent="1">
          <mxGeometry x="500" y="200" width="440" height="270" as="geometry" />
        </mxCell>
        <mxCell id="zoR_4AAuzc3p54MubUYO-42" value="Paused" style="text;html=1;align=center;verticalAlign=middle;whiteSpace=wrap;rounded=0;fontFamily=Cabin Sketch;fontSource=https%3A%2F%2Ffonts.googleapis.com%2Fcss%3Ffamily%3DCabin%2BSketch;fontSize=24;" vertex="1" parent="1">
          <mxGeometry x="690" y="230" width="60" height="30" as="geometry" />
        </mxCell>
        <mxCell id="zoR_4AAuzc3p54MubUYO-43" value="" style="line;strokeWidth=2;html=1;sketch=1;hachureGap=4;jiggle=2;curveFitting=1;fontFamily=Architects Daughter;fontSource=https%3A%2F%2Ffonts.googleapis.com%2Fcss%3Ffamily%3DArchitects%2BDaughter;" vertex="1" parent="1">
          <mxGeometry x="540" y="260" width="370" height="10" as="geometry" />
        </mxCell>
        <mxCell id="zoR_4AAuzc3p54MubUYO-45" value="Resume Game" style="strokeWidth=1;shadow=0;dashed=0;align=center;html=1;shape=mxgraph.mockup.buttons.button;strokeColor=#666666;fontColor=#000000;mainText=;buttonStyle=round;fontSize=20;fontStyle=1;fillColor=#A89F94;whiteSpace=wrap;sketch=1;hachureGap=4;jiggle=2;curveFitting=1;fontFamily=Cabin Sketch;fontSource=https%3A%2F%2Ffonts.googleapis.com%2Fcss%3Ffamily%3DCabin%2BSketch;" vertex="1" parent="1">
          <mxGeometry x="640" y="300" width="150" height="50" as="geometry" />
        </mxCell>
        <mxCell id="zoR_4AAuzc3p54MubUYO-46" value="Quit" style="strokeWidth=1;shadow=0;dashed=0;align=center;html=1;shape=mxgraph.mockup.buttons.button;strokeColor=#666666;fontColor=#000000;mainText=;buttonStyle=round;fontSize=20;fontStyle=1;fillColor=#A89F94;whiteSpace=wrap;sketch=1;hachureGap=4;jiggle=2;curveFitting=1;fontFamily=Cabin Sketch;fontSource=https%3A%2F%2Ffonts.googleapis.com%2Fcss%3Ffamily%3DCabin%2BSketch;" vertex="1" parent="1">
          <mxGeometry x="640" y="375" width="150" height="50" as="geometry" />
        </mxCell>
      </root>
    </mxGraphModel>
  </diagram>
</mxfile>
